<svg width="512" height="512" xmlns="http://www.w3.org/2000/svg">

 <g>
  <title>background</title>
  <rect fill="none" id="canvas_background" height="402" width="582" y="-1" x="-1"/>
 </g>
 <g>
  <title>Layer 1</title>
  <g stroke="null" id="svg_1">
   <path stroke=" none" fill="#e8e8e8" id="body-bg-flat" fill-rule="nonzero" d="m99.974957,478.146384c0,0 -11.249879,-98.621736 85.658201,-109.624435c0,0 41.46771,0 41.46771,0c0,0 0,-19.103111 0,-19.103111c0,0 29.16973,12.529117 58.707111,1.397777c0,0 0.931855,17.705334 0.931855,17.705334c0,0 48.456639,0 48.456639,0c0,0 84.384325,8.424152 79.280804,109.624435c0,0 -314.502319,0 -314.502319,0z"/>
   <path stroke=" none" id="Rounded Rectangle 13 copy" fill-rule="nonzero" d="m411.487244,479.879063c0,0 0,0 0,0c0,0 -310.698141,0 -310.698141,0c0,0 0,0 0,0c0,0 -6.025646,0 -6.025646,0c0,0 1.504096,-25.69508 1.504096,-25.69508c2.936775,-50.169923 42.465315,-88.45761 87.700282,-88.45761c0,0 34.425981,0 34.425981,0c0,0 0,5.125219 0,5.125219c0,0 -31.679862,0 -31.679862,0c-43.597196,0 -81.694598,36.854015 -84.525065,85.145322c0,0 -1.044759,17.825074 -1.044759,17.825074c0,0 309.522164,0 309.522164,0c0,0 -0.578837,-17.825074 -0.578837,-17.825074c-2.830466,-48.291307 -40.927858,-85.145322 -84.525086,-85.145322c0,0 -42.40437,0 -42.40437,0c0,0 0,-5.125219 0,-5.125219c0,0 44.874185,0 44.874185,0c45.234956,0 84.763497,38.287687 87.700271,88.45761c0,0 1.504096,25.69508 1.504096,25.69508c0,0 -5.74931,0 -5.74931,0z"/>
   <path stroke=" none" id="neck copy 5" fill-rule="nonzero" d="m229.57611,347.263285c0,0 0,28.736656 0,28.736656c0,14.912095 12.099024,27.000789 27.023918,27.000789c14.924882,0 27.023907,-12.088694 27.023907,-27.000789c0,0 0,-28.143797 0,-28.143797c1.568318,-0.477356 3.121861,-0.995837 4.659286,-1.555978c0,0 0,29.895367 0,29.895367c0,17.634647 -14.289326,31.930405 -31.916143,31.930405c-17.626818,0 -31.916187,-14.295758 -31.916187,-31.930405c0,0 0,-30.780408 0,-30.780408c1.688091,0.667487 3.397881,1.281422 5.125219,1.84816z"/>
   <path stroke=" none" id="Rounded Rectangle 14" fill-rule="nonzero" d="m224.217952,402.534796c1.672584,0 3.028515,1.355898 3.028515,3.028515c0,0 0,45.661074 0,45.661074c0,1.672628 -1.355931,3.028559 -3.028515,3.028559c-1.672628,0 -3.028559,-1.355931 -3.028559,-3.028559c0,0 0,-45.661074 0,-45.661074c0,-1.672617 1.355931,-3.028515 3.028559,-3.028515z"/>
   <path stroke=" none" id="Rounded Rectangle 15" fill-rule="nonzero" d="m287.817299,402.068863c1.801257,0 3.261498,1.460208 3.261498,3.261509c0,0 0,28.421662 0,28.421662c0,1.80129 -1.460241,3.261531 -3.261498,3.261531c-1.801301,0 -3.261509,-1.460241 -3.261509,-3.261531c0,0 0,-28.421662 0,-28.421662c0,-1.801301 1.460208,-3.261509 3.261509,-3.261509z"/>
   <path stroke=" none" id="Rounded Rectangle 16" fill-rule="nonzero" d="m224.217952,450.991435c0.900623,0 1.630727,0.730104 1.630727,1.630771c0,0 0,11.648227 0,11.648227c0,0.900623 -0.730104,1.630727 -1.630727,1.630727c-0.900667,0 -1.630771,-0.730104 -1.630771,-1.630727c0,0 0,-11.648227 0,-11.648227c0,-0.900667 0.730104,-1.630771 1.630771,-1.630771z"/>
   <path stroke=" none" id="Rounded Rectangle 16 copy" fill-rule="nonzero" d="m288.050238,433.752034c0.900667,0 1.630771,0.730137 1.630771,1.630771c0,0 0,11.648216 0,11.648216c0,0.900667 -0.730104,1.630771 -1.630771,1.630771c-0.900623,0 -1.630727,-0.730104 -1.630727,-1.630771c0,0 0,-11.648216 0,-11.648216c0,-0.900634 0.730104,-1.630771 1.630727,-1.630771z"/>
   <path fill="#e8e8e8" stroke=" none" id="Shape 1 copy" fill-rule="nonzero" d="m206.737028,335.79712c0,0 -29.510419,6.776247 -29.510419,6.776247c0,0 -36.138304,8.185829 -12.095453,32.541773c24.042872,24.355944 85.877719,28.657277 85.877719,28.657277c0,0 -16.349065,-7.743801 -23.296475,-18.637189c0,0 -2.329643,-39.138066 -2.329643,-39.138066c0,0 -18.645729,-10.200042 -18.645729,-10.200042z"/>
   <path stroke=" none" id="Shape 1 copy 2" fill-rule="evenodd" d="m251.94073,406.10206c-1.831048,2.317554 -53.319751,0.724043 -88.992515,-30.285405c-25.82918,-22.452703 13.046037,-35.410635 13.046037,-35.410635c0,0 28.421706,-6.523007 28.421706,-6.523007c0,0 24.694231,12.580082 24.694231,12.580082c0,0 1.86371,37.740278 1.86371,37.740278c10.39547,16.299913 23.914571,18.167729 20.966832,21.898687zm-25.626119,-20.034977c0,0 -2.795576,-39.603988 -2.795576,-39.603988c0,0 -14.909725,-8.386718 -14.909725,-8.386718c0,0 -28.421695,6.98893 -28.421695,6.98893c0,0 -34.425915,7.05942 -12.580115,27.48984c23.576011,22.048425 67.19021,27.965503 71.753158,27.48984c4.729263,-0.493059 -2.650577,2.322043 -13.046048,-13.977903z"/>
   <path fill="#e8e8e8" stroke=" none" id="Shape 1 copy 4" fill-rule="nonzero" d="m306.431817,336.894875c0,0 29.527924,6.796537 29.527924,6.796537c0,0 36.159697,8.210334 12.102617,32.639225c-24.057145,24.428891 -85.92864,28.743088 -85.92864,28.743088c0,0 16.358794,-7.766962 23.310279,-18.69298c0,0 2.331041,-39.255262 2.331041,-39.255262c0,0 18.65678,-10.230608 18.65678,-10.230608z"/>
   <path stroke=" none" id="Shape 1 copy 6" fill-rule="evenodd" d="m261.201328,406.944413c1.832118,2.324511 53.351344,0.726227 89.045238,-30.376097c25.844512,-22.519949 -13.053735,-35.51667 -13.053735,-35.51667c0,0 -28.438556,-6.542533 -28.438556,-6.542533c0,0 -24.708864,12.617735 -24.708864,12.617735c0,0 -1.864857,37.853314 -1.864857,37.853314c-10.401596,16.348737 -23.928701,18.222122 -20.979227,21.964252zm25.641287,-20.094973c0,0 2.797236,-39.722593 2.797236,-39.722593c0,0 14.918592,-8.411812 14.918592,-8.411812c0,0 28.438523,7.009853 28.438523,7.009853c0,0 34.446347,7.08055 12.587551,27.572156c-23.589978,22.114482 -67.230036,28.04925 -71.795649,27.572156c-4.732102,-0.494522 2.652139,2.328977 13.053746,-14.01976z"/>
   <path stroke=" none" fill="#eaeaea" id="2 copy 5" fill-rule="nonzero" d="m256.368508,54.951452c57.96221,0 103.711825,54.165632 102.224261,119.246951c0,0 -1.581051,69.169926 -1.581051,69.169926c-1.401414,61.313068 -46.44532,109.77793 -100.64321,109.77793c-54.19789,0 -99.241797,-48.464862 -100.64321,-109.77793c0,0 -1.581051,-69.169926 -1.581051,-69.169926c-1.48753,-65.081319 44.262052,-119.246951 102.224261,-119.246951z"/>
   <path stroke=" none" id="2 line" fill-rule="evenodd" d="m363.249861,172.053879c0,0 -1.656663,71.979938 -1.656663,71.979938c-1.468442,63.803905 -48.667094,114.23766 -105.457575,114.23766c-56.790503,0 -103.989122,-50.433756 -105.457596,-114.23766c0,0 -1.656696,-71.979938 -1.656696,-71.979938c-1.558687,-67.725257 46.379406,-124.091356 107.114292,-124.091356c60.734897,0 108.672946,56.366099 107.114237,124.091356zm-107.346947,-116.636494c-57.169817,0 -102.293976,53.742451 -100.826801,118.315325c0,0 1.559451,68.62955 1.559451,68.62955c1.382249,60.834031 45.810397,108.920289 99.26735,108.920289c53.456953,0 97.885058,-48.086258 99.267317,-108.920289c0,0 1.559418,-68.62955 1.559418,-68.62955c1.467241,-64.572874 -43.656919,-118.315325 -100.826735,-118.315325z"/>
   <path stroke=" none" fill="#4c4c4c" opacity="0.058824" id="1 copy 4" fill-rule="evenodd" d="m360.342112,184.0139c0,0 -4.659297,76.412444 -4.659297,76.412444c0,0 -20.694056,88.203628 -100.640742,98.647464c0,0 0,0.129536 0,0.129536c-0.157131,-0.019198 -0.309261,-0.044959 -0.465933,-0.064757c-0.156661,0.019798 -0.308791,0.045559 -0.465922,0.064757c0,0 0,-0.129536 0,-0.129536c-79.946653,-10.443836 -100.640753,-98.647464 -100.640753,-98.647464c0,0 -4.659286,-76.412444 -4.659286,-76.412444c20.745982,92.086596 38.2062,97.84521 38.2062,97.84521c-3.533303,-27.924246 25.160196,-25.160196 25.160196,-25.160196c17.487781,2.954007 31.409259,4.381487 42.399565,4.915158c10.990338,-0.533671 24.911783,-1.961151 42.399565,-4.915158c0,0 28.693477,-2.764049 25.160196,25.160196c0,0 17.460219,-5.758614 38.206211,-97.84521zm-51.80943,107.316349c-1.356324,-16.425779 -11.261171,-15.03296 -11.261171,-15.03296c-17.608461,5.18124 -31.430728,8.059592 -42.229439,9.522464c0,0 0,-0.107379 0,-0.107379c-10.723099,-1.450937 -24.448559,-4.305668 -41.933632,-9.44445c0,0 -9.835503,-1.381419 -11.182337,14.909758c0,0 -3.949472,16.322081 9.318616,23.296454c0,0 16.773446,17.705323 16.773446,17.705323c0,0 11.462594,3.632786 11.182327,-10.250461c0,0 -1.166673,-10.354181 5.591141,-12.11416c0,0 10.250439,0 10.250439,0c0,0 0,0.306596 0,0.306596c0,0 10.322752,0 10.322752,0c6.80547,1.774536 5.630607,12.214298 5.630607,12.214298c-0.282266,13.997996 11.261138,10.335158 11.261138,10.335158c0,0 16.891789,-17.851632 16.891789,-17.851632c13.361664,-7.032032 9.384323,-23.48901 9.384323,-23.48901z"/>
   <path stroke=" none" id="usta" fill-rule="nonzero" d="m306.454455,285.214423c-8.46887,7.353479 -27.597557,14.349944 -49.854394,14.349944c-22.256881,0 -41.385568,-6.996464 -49.85446,-14.349944c0,0 -0.866476,-2.384201 0.404802,-3.655489c1.29481,-1.294799 3.32263,-1.013003 3.32263,-1.013003c8.460003,7.358492 23.861651,13.427327 46.127029,13.427327c22.265345,0 37.666993,-6.068836 46.126996,-13.427327c0,0 2.069403,-0.768729 3.074675,0.236554c1.936199,1.936199 0.652723,4.431938 0.652723,4.431938z"/>
   <path stroke=" none" id="-" fill-rule="nonzero" d="m241.22437,310.746693c0,0 29.819483,0 29.819483,0c0,0 0,4.659297 0,4.659297c0,0 -29.819483,0 -29.819483,0c0,0 0,-4.659297 0,-4.659297z"/>
   <path stroke=" none" fill="#eaeaea" id="Shape 11 copy" fill-rule="nonzero" d="m148.905424,182.550394c-0.012864,0.000732 -1.144013,-0.9026 -3.279997,-1.575111c-1.067561,-0.335524 -2.394367,-0.611532 -3.906654,-0.679587c-0.377687,-0.016992 -0.766403,-0.021021 -1.164139,-0.00973c-0.397747,0.011302 -0.804558,0.037893 -1.218063,0.082055c-0.826912,0.088345 -1.68096,0.247103 -2.540371,0.494315c-3.441125,0.988913 -6.951506,3.393273 -9.013145,8.355901c-1.034898,2.481445 -1.717609,5.602739 -1.898109,9.508038c-0.045155,0.976344 -0.058947,2.001676 -0.03916,3.078268c0.019831,1.076592 0.073286,2.204443 0.162569,3.385814c0.178458,2.362633 0.500725,4.93939 0.980876,7.74723c-0.010494,-0.002763 -0.447827,8.485 2.586563,18.238011c2.852623,9.535492 9.702691,21.249 22.350282,24.596254c-1.454606,-24.22037 -1.499794,-48.894747 -3.020653,-73.221458c0,0 0,0 0,0z"/>
   <path stroke=" none" id="Shape 3" fill-rule="nonzero" d="m150.347603,183.526814c0,0 -22.033061,-6.826972 -21.25767,15.824282c0,0 3.280336,32.845039 4.704813,35.872124c0,0 8.652996,19.123521 22.933531,19.971028c13.957132,0.82831 0,0 0,0c0,0 0.173326,6.163951 0.173326,6.163951c0,0 -25.099742,-3.218178 -29.947588,-32.143229c0,0 -3.826314,-26.277007 -3.826314,-26.277007c0,0 -2.970966,-34.775046 25.84757,-25.933228c28.07512,8.613738 0,0 0,0c0,0 1.372333,6.522079 1.372333,6.522079"/>
   <path stroke=" none" id="Shape 4" fill-rule="nonzero" d="m143.075228,229.159714c0,0 -1.233057,0.931855 -2.292318,0.931855c-1.059261,0 -2.277292,-0.931855 -2.277292,-0.931855c0,0 -2.273819,-22.913667 -2.273819,-22.913667c0,0 3.137292,-11.284365 16.450011,-5.320899c0,0 0.314699,6.551826 0.314699,6.551826c0,0 -11.679884,-4.142269 -11.438373,1.01581c0.232481,4.964921 1.517091,20.66693 1.517091,20.66693z"/>
   <path stroke=" none" fill="#eaeaea" id="Shape 11 copy_1" fill-rule="nonzero" d="m362.948496,182.603881c0.01293,0.000732 1.149036,-0.901966 3.294357,-1.57404c1.072256,-0.335294 2.404862,-0.611095 3.923788,-0.679118c0.379314,-0.016959 0.769723,-0.021 1.169239,-0.009697c0.399473,0.011259 0.808053,0.037849 1.223392,0.081978c0.830515,0.088279 1.688321,0.24695 2.551498,0.493987c3.456184,0.988247 6.98193,3.390979 9.0526,8.350233c1.03943,2.479742 1.725144,5.598906 1.906408,9.501574c0.045352,0.975678 0.05922,2.000311 0.039356,3.076171c-0.019929,1.07586 -0.073613,2.202936 -0.163301,3.38351c-0.179223,2.361039 -0.50292,4.936059 -0.985179,7.741966c0.010571,-0.002763 0.449804,8.479266 -2.597887,18.22565c-2.865083,9.529027 -9.745171,21.234574 -22.44816,24.579557c1.460972,-24.203946 1.506357,-48.86155 3.033888,-73.171771c0,0 0,0 0,0z"/>
   <path stroke=" none" id="Shape 3_1" fill-rule="nonzero" d="m361.495211,183.579668c0,0 22.129573,-6.822342 21.350787,15.813515c0,0 -3.294696,32.822751 -4.725441,35.847772c0,0 -8.690889,19.110548 -23.033942,19.957487c-14.018286,0.827753 0,0 0,0c0,0 -0.17409,6.159757 -0.17409,6.159757c0,0 25.209654,-3.215983 30.078729,-32.1214c0,0 3.843065,-26.259186 3.843065,-26.259186c0,0 2.984005,-34.751447 -25.96078,-25.915624c-28.198049,8.607907 0,0 0,0c0,0 -1.378328,6.517678 -1.378328,6.517678"/>
   <path stroke=" none" id="Shape 4_1" fill-rule="nonzero" d="m368.799451,229.181576c0,0 1.238451,0.931222 2.302343,0.931222c1.063902,0 2.287262,-0.931222 2.287262,-0.931222c0,0 2.283778,-22.898106 2.283778,-22.898106c0,0 -3.151018,-11.276699 -16.522063,-5.317306c0,0 -0.316064,6.547403 -0.316064,6.547403c0,0 11.731046,-4.139473 11.488464,1.015111c-0.233485,4.961547 -1.52372,20.652898 -1.52372,20.652898z"/>
   <path stroke=" none" id="new_vector_shape_done" fill-rule="evenodd" d="m264.753795,227.345352c0.54351,0 1.087228,0 1.630738,0c3.371574,4.578815 4.743274,11.615204 6.522997,17.705301c0.551548,1.887342 0.016468,5.188535 -0.465922,6.523007c-1.76664,4.887366 -7.313959,4.799655 -11.881177,6.98893c-1.226581,0.58801 -2.138987,1.602913 -3.72742,1.863754c-1.035575,-0.912199 -2.28593,-1.091356 -2.795609,-2.562626c-1.258359,-1.732744 0.363447,-2.814807 1.63076,-3.494481c2.30006,-1.233526 9.4003,-2.449285 10.250439,-4.659297c1.051868,-1.196561 0.35245,-4.794151 0,-6.057074c-0.902665,-3.234744 -1.335936,-5.93527 -2.562593,-8.852651c-0.814812,-1.937793 -2.245394,-3.980966 -1.397788,-6.290057c0.702378,-0.301595 2.220408,-0.644522 2.795576,-1.164805z"/>
   <path stroke=" none" id="Rounded Rectangle 9" fill-rule="nonzero" d="m196.961051,194.450725c0,0 16.773479,0 16.773479,0c2.315916,0 4.193364,2.252929 4.193364,5.032048c0,2.779108 -1.877448,5.032037 -4.193364,5.032037c0,0 -16.773479,0 -16.773479,0c-2.315906,0 -4.193353,-2.252929 -4.193353,-5.032037c0,-2.779119 1.877448,-5.032048 4.193353,-5.032048z"/>
   <path stroke=" none" id="Rounded Rectangle 9 copy" fill-rule="nonzero" d="m299.465514,193.332516c0,0 16.773479,0 16.773479,0c2.315916,0 4.193353,2.252896 4.193353,5.032037c0,2.779108 -1.877437,5.032004 -4.193353,5.032004c0,0 -16.773479,0 -16.773479,0c-2.315906,0 -4.193353,-2.252896 -4.193353,-5.032004c0,-2.779141 1.877448,-5.032037 4.193353,-5.032037z"/>
   <path stroke=" none" fill="#d6d6d6" fill-opacity="0" id="Ellipse 3 copy" fill-rule="nonzero" d="m199.75666,222.220144c6.433123,0 11.648227,5.215093 11.648227,11.648216c0,6.433123 -5.215104,11.648227 -11.648227,11.648227c-6.433156,0 -11.648216,-5.215104 -11.648216,-11.648227c0,-6.433123 5.21506,-11.648216 11.648216,-11.648216z"/>
   <path stroke=" none" id="glasses" fill-rule="evenodd" d="m357.626516,177.708882c-0.630293,5.383559 -1.184036,11.971443 -2.348109,17.861395c-3.480918,17.612687 -18.614923,33.930727 -44.456301,35.790014c-25.841345,1.859287 -47.834711,-11.149937 -49.123559,-29.056924c-0.218514,-3.036149 -0.803084,-6.44329 -1.251686,-9.755775c-3.657018,-2.027448 -7.42623,-2.032078 -11.307636,-0.013803c-0.453298,3.387474 -1.059895,6.884226 -1.283606,9.992995c-1.292878,17.966338 -23.355597,31.018687 -49.278462,29.153229c-25.922854,-1.865446 -41.10459,-18.237542 -44.596505,-35.908619c-1.167732,-5.909477 -1.723211,-12.519191 -2.355502,-17.920615c0,0 -3.809311,-0.274141 -3.809311,-0.274141c0,0 0.53508,-7.435632 0.53508,-7.435632c0,0 0.929453,0.066886 0.929453,0.066886c0,0 23.575148,1.696522 23.575148,1.696522c0,0 19.900014,1.432045 19.900014,1.432045c0,0 19.937001,1.434677 19.937001,1.434677c0,0 31.053468,2.23467 31.053468,2.23467c2.141652,0.270876 3.565736,1.189365 4.482837,2.560529c4.459697,1.952186 8.790897,1.959994 12.993543,0.023053c0.908803,-1.459367 2.352041,-2.441881 4.572842,-2.722716c0,0 30.955863,-2.227266 30.955863,-2.227266c0,0 19.874352,-1.429948 19.874352,-1.429948c0,0 19.837452,-1.427316 19.837452,-1.427316c0,0 23.501033,-1.69092 23.501033,-1.69092c0,0 0.926526,-0.066657 0.926526,-0.066657c0,0 0.53342,7.411072 0.53342,7.411072c0,0 -3.797353,0.273246 -3.797353,0.273246zm-122.219139,8.034726c0,0 -60.860097,-4.379576 -60.860097,-4.379576c-7.960021,-0.686248 -10.781489,8.258711 -11.27208,15.076215c-1.034298,14.373051 14.980554,27.237528 35.770151,28.733598c20.789608,1.496026 38.481412,-8.94283 39.51572,-23.315913c0.490591,-6.817471 2.717387,-11.02786 -3.153694,-16.114324zm110.605715,10.493315c-0.489062,-6.794975 -3.301663,-15.710406 -11.236655,-15.026429c0,0 -60.668775,4.365128 -60.668775,4.365128c-5.852615,5.06969 -3.632818,9.266123 -3.143789,16.061098c1.031065,14.325581 18.667252,24.729984 39.391503,23.23886c20.724261,-1.491101 36.688781,-14.313099 35.657716,-28.638658z"/>
   <path stroke-width="5" stroke="#000000" fill="#a3a3a3" id="Shape 7" fill-rule="nonzero" d="m154.594586,212.901527c0,0 12.961896,-56.780675 24.241162,-72.31223c11.279276,-15.531555 21.039856,-19.246417 26.105887,-19.721512c5.066032,-0.475062 44.96052,11.318032 99.761708,-2.191306c0,0 21.607991,-0.862381 30.767642,20.817192c0,0 19.311698,34.54903 22.376447,69.025298c0,0 3.729397,0 3.729397,0c0,0 7.90317,-60.43565 4.66182,-96.416321c-3.241438,-35.980638 -50.347082,-53.686332 -50.347082,-53.686332c0,0 10.255877,-7.669521 10.255877,-7.669521c0,0 -23.944339,-7.401976 -33.564681,-3.286866c0,0 7.458794,-15.338988 7.458794,-15.338988c0,0 -48.322069,0.096305 -75.520546,21.912785c0,0 0.932357,-10.956409 0.932357,-10.956409c0,0 -95.86841,14.701302 -75.520536,167.632936c0,0 4.661754,2.191273 4.661754,2.191273z"/>
  </g>
 </g>
</svg>