<svg width="50" height="50" xmlns="http://www.w3.org/2000/svg">

 <g>
  <title>background</title>
  <rect fill="none" id="canvas_background" height="402" width="582" y="-1" x="-1"/>
 </g>
 <g>
  <title>Layer 1</title>
  <path id="n_1_" fill="#ffffff" d="m21.6,21.1l4.7,0l0,2.4l0,0c0.7,-1.2 2.3,-2.4 4.7,-2.4c5,0 5.5,2.9 5.5,7.1l0,8.7l-4.7,0l0,-7.9c0,-1.8 0.1,-3.9 -2.4,-3.9c-3.2,0 -3.2,1.9 -3.2,3.9l0,7.9l-4.7,0l0.1,-15.8l0,0z"/>
  <rect y="21.1" x="13.8" width="4.7" id="_x7C__1_" height="15.8" fill="#ffffff"/>
  <circle r="2.8" id="_x28____x29__1_" fill="#ffffff" cy="15.9" cx="16.1"/>
  <path id="svg_1" fill="#ffffff" d="m25,1c-13.3,0 -24,10.7 -24,24s10.7,24 24,24s24,-10.7 24,-24s-10.7,-24 -24,-24zm0,43c-10.5,0 -19,-8.5 -19,-19s8.5,-19 19,-19s19,8.5 19,19s-8.5,19 -19,19z"/>
 </g>
</svg>